# xmcd CD database file
#
# Track frame offsets:
#	150
#	27525
#	46202
#	68030
#	93082
#	121660
#	140485
#	160212
#	187740
#
# Disc length: 2724 seconds
#
# Revision: 0
# Processed by: cddbd v1.5.2PL0 Copyright (c) Steve Scherf et al.
# Submitted via: CDex 1.51
#
DISCID=6b0aa209
DTITLE=Rozni - Christmas TRIO
DYEAR=1998
DGENRE=Jazz
TTITLE0=Cicha noc
TTITLE1=Z narodzenia Pana
TTITLE2=Gdy sie Chrystus rodzi
TTITLE3=Mizerna Cicha
TTITLE4=Medrcy Swiata
TTITLE5=Pojdzmy wszyscy do stajenki
TTITLE6=Jezus Malusienki
TTITLE7=Gdy Sliczna Panna
TTITLE8=Lulajze Jezuniu
EXTD=YEAR: 1998
EXTT0=
EXTT1=
EXTT2=
EXTT3=
EXTT4=
EXTT5=
EXTT6=
EXTT7=
EXTT8=
PLAYORDER=
